<svg class="thumb" viewBox="0 0 400 200" xmlns="http://www.w3.org/2000/svg">
      <rect width="400" height="200" fill="#0d1117"/>
      <rect x="0" y="0" width="400" height="4" fill="#f59e0b"/>
      <!-- Profile section -->
      <circle cx="44" cy="52" r="24" fill="#21262d" stroke="#30363d" stroke-width="1.5"/>
      <text x="44" y="57" text-anchor="middle" fill="#8b949e" font-size="16" font-family="monospace">{''}</text>
      <text x="80" y="44" fill="#c9d1d9" font-size="12" font-family="monospace" font-weight="600">kshitijrat</text>
      <text x="80" y="58" fill="#8b949e" font-size="9" font-family="monospace">Full Stack Developer</text>
      <text x="80" y="70" fill="#f59e0b" font-size="9" font-family="monospace">★ 142 stars   🍴 38 forks</text>
      <!-- Divider -->
      <line x1="8" y1="84" x2="392" y2="84" stroke="#21262d" stroke-width="1"/>
      <!-- Stats cards -->
      <rect x="8" y="92" width="86" height="44" rx="6" fill="#161b22" stroke="#30363d" stroke-width="1"/>
      <text x="51" y="112" text-anchor="middle" fill="#f59e0b" font-size="16" font-family="monospace" font-weight="700">12</text>
      <text x="51" y="126" text-anchor="middle" fill="#6e7681" font-size="8" font-family="monospace">Repos</text>
      <rect x="104" y="92" width="86" height="44" rx="6" fill="#161b22" stroke="#30363d" stroke-width="1"/>
      <text x="147" y="112" text-anchor="middle" fill="#22c55e" font-size="16" font-family="monospace" font-weight="700">847</text>
      <text x="147" y="126" text-anchor="middle" fill="#6e7681" font-size="8" font-family="monospace">Contributions</text>
      <rect x="200" y="92" width="86" height="44" rx="6" fill="#161b22" stroke="#30363d" stroke-width="1"/>
      <text x="243" y="112" text-anchor="middle" fill="#a855f7" font-size="16" font-family="monospace" font-weight="700">24</text>
      <text x="243" y="126" text-anchor="middle" fill="#6e7681" font-size="8" font-family="monospace">Followers</text>
      <rect x="296" y="92" width="96" height="44" rx="6" fill="#161b22" stroke="#30363d" stroke-width="1"/>
      <text x="344" y="112" text-anchor="middle" fill="#06b6d4" font-size="16" font-family="monospace" font-weight="700">5.2k</text>
      <text x="344" y="126" text-anchor="middle" fill="#6e7681" font-size="8" font-family="monospace">Lines Written</text>
      <!-- Contribution graph bars -->
      <text x="8" y="154" fill="#6e7681" font-size="9" font-family="monospace">Contribution Activity</text>
      <rect x="8" y="158" width="8" height="32" rx="2" fill="#0a3d0a"/>
      <rect x="20" y="162" width="8" height="28" rx="2" fill="#166534"/>
      <rect x="32" y="150" width="8" height="40" rx="2" fill="#22c55e"/>
      <rect x="44" y="168" width="8" height="22" rx="2" fill="#0a3d0a"/>
      <rect x="56" y="155" width="8" height="35" rx="2" fill="#166534"/>
      <rect x="68" y="145" width="8" height="45" rx="2" fill="#22c55e"/>
      <rect x="80" y="160" width="8" height="30" rx="2" fill="#0a3d0a"/>
      <rect x="92" y="152" width="8" height="38" rx="2" fill="#166534"/>
      <rect x="104" y="142" width="8" height="48" rx="2" fill="#22c55e"/>
      <rect x="116" y="165" width="8" height="25" rx="2" fill="#0a3d0a"/>
      <rect x="128" y="148" width="8" height="42" rx="2" fill="#166534"/>
      <rect x="140" y="135" width="8" height="55" rx="2" fill="#22c55e" opacity="0.9"/>
      <rect x="152" y="158" width="8" height="32" rx="2" fill="#0a3d0a"/>
      <rect x="164" y="145" width="8" height="45" rx="2" fill="#166534"/>
      <!-- Language bars -->
      <text x="220" y="154" fill="#6e7681" font-size="9" font-family="monospace">Top Languages</text>
      <rect x="220" y="160" width="80" height="8" rx="4" fill="#3b82f6"/>
      <text x="306" y="168" fill="#8b949e" font-size="8" font-family="monospace">Java 48%</text>
      <rect x="220" y="172" width="48" height="8" rx="4" fill="#06b6d4"/>
      <text x="274" y="180" fill="#8b949e" font-size="8" font-family="monospace">JS 29%</text>
      <rect x="220" y="184" width="28" height="8" rx="4" fill="#f59e0b"/>
      <text x="254" y="192" fill="#8b949e" font-size="8" font-family="monospace">Python 17%</text>
    </svg>