<svg class="thumb" viewBox="0 0 400 200" xmlns="http://www.w3.org/2000/svg">
      <rect width="400" height="200" fill="#0a0f1e"/>
      <rect x="0" y="0" width="400" height="4" fill="#ef4444"/>
      <!-- Chart grid -->
      <line x1="48" y1="20" x2="48" y2="160" stroke="#1e293b" stroke-width="1"/>
      <line x1="48" y1="160" x2="380" y2="160" stroke="#1e293b" stroke-width="1"/>
      <line x1="48" y1="120" x2="380" y2="120" stroke="#1e293b" stroke-width="0.5" stroke-dasharray="3,3"/>
      <line x1="48" y1="90" x2="380" y2="90" stroke="#1e293b" stroke-width="0.5" stroke-dasharray="3,3"/>
      <line x1="48" y1="60" x2="380" y2="60" stroke="#1e293b" stroke-width="0.5" stroke-dasharray="3,3"/>
      <!-- Y axis labels -->
      <text x="40" y="163" text-anchor="end" fill="#475569" font-size="8" font-family="monospace">0</text>
      <text x="40" y="123" text-anchor="end" fill="#475569" font-size="8" font-family="monospace">25</text>
      <text x="40" y="93" text-anchor="end" fill="#475569" font-size="8" font-family="monospace">50</text>
      <text x="40" y="63" text-anchor="end" fill="#475569" font-size="8" font-family="monospace">75</text>
      <!-- Actual data line (gait cycle) -->
      <polyline points="52,155 80,130 108,100 136,85 164,95 192,110 220,105 248,88 276,70 304,82 332,98 360,112 380,125" fill="none" stroke="#ef4444" stroke-width="2" stroke-linejoin="round"/>
      <!-- Predicted data line -->
      <polyline points="52,157 80,128 108,102 136,88 164,92 192,108 220,103 248,86 276,72 304,80 332,96 360,110 380,123" fill="none" stroke="#06b6d4" stroke-width="1.5" stroke-dasharray="4,2" stroke-linejoin="round"/>
      <!-- Legend -->
      <line x1="52" y1="176" x2="72" y2="176" stroke="#ef4444" stroke-width="2"/>
      <text x="76" y="179" fill="#94a3b8" font-size="9" font-family="monospace">Actual</text>
      <line x1="124" y1="176" x2="144" y2="176" stroke="#06b6d4" stroke-width="1.5" stroke-dasharray="4,2"/>
      <text x="148" y="179" fill="#94a3b8" font-size="9" font-family="monospace">Predicted</text>
      <!-- Accuracy badge -->
      <rect x="280" y="168" width="100" height="24" rx="12" fill="#1a0a0a" stroke="#ef4444" stroke-width="1"/>
      <text x="330" y="184" text-anchor="middle" fill="#ef4444" font-size="11" font-family="monospace" font-weight="700">94% Accuracy</text>
      <!-- X label -->
      <text x="214" y="196" text-anchor="middle" fill="#475569" font-size="9" font-family="monospace">Gait Cycle (%)</text>
      <!-- Data points -->
      <circle cx="136" cy="85" r="3" fill="#ef4444"/>
      <circle cx="276" cy="70" r="3" fill="#ef4444"/>
      <!-- Title -->
      <text x="52" y="14" fill="#64748b" font-size="9" font-family="monospace">Human Gait Cycle — Polynomial Regression</text>
    </svg>