<svg class="thumb" viewBox="0 0 400 200" xmlns="http://www.w3.org/2000/svg">
      <rect width="400" height="200" fill="#0f172a"/>
      <rect x="0" y="0" width="400" height="4" fill="#06b6d4"/>
      <!-- Grid bg lines -->
      <line x1="0" y1="40" x2="400" y2="40" stroke="#1e293b" stroke-width="1"/>
      <line x1="0" y1="80" x2="400" y2="80" stroke="#1e293b" stroke-width="1"/>
      <line x1="0" y1="120" x2="400" y2="120" stroke="#1e293b" stroke-width="1"/>
      <line x1="0" y1="160" x2="400" y2="160" stroke="#1e293b" stroke-width="1"/>
      <line x1="80" y1="0" x2="80" y2="200" stroke="#1e293b" stroke-width="1"/>
      <line x1="160" y1="0" x2="160" y2="200" stroke="#1e293b" stroke-width="1"/>
      <line x1="240" y1="0" x2="240" y2="200" stroke="#1e293b" stroke-width="1"/>
      <line x1="320" y1="0" x2="320" y2="200" stroke="#1e293b" stroke-width="1"/>
      <!-- Gateway box -->
      <rect x="160" y="20" width="80" height="32" rx="6" fill="#0e7490" stroke="#06b6d4" stroke-width="1"/>
      <text x="200" y="41" text-anchor="middle" fill="#e0f2fe" font-size="11" font-family="monospace" font-weight="600">API Gateway</text>
      <!-- Arrows down -->
      <line x1="200" y1="52" x2="200" y2="68" stroke="#06b6d4" stroke-width="1.5" marker-end="url(#arr2)"/>
      <!-- 4 service boxes -->
      <rect x="20" y="70" width="76" height="30" rx="5" fill="#1e3a5f" stroke="#3b82f6" stroke-width="1"/>
      <text x="58" y="90" text-anchor="middle" fill="#93c5fd" font-size="10" font-family="monospace">Order</text>
      <rect x="110" y="70" width="76" height="30" rx="5" fill="#1a3a2a" stroke="#22c55e" stroke-width="1"/>
      <text x="148" y="90" text-anchor="middle" fill="#86efac" font-size="10" font-family="monospace">Payment</text>
      <rect x="214" y="70" width="76" height="30" rx="5" fill="#3b2a1a" stroke="#f59e0b" stroke-width="1"/>
      <text x="252" y="90" text-anchor="middle" fill="#fcd34d" font-size="10" font-family="monospace">Inventory</text>
      <rect x="304" y="70" width="76" height="30" rx="5" fill="#2a1a3b" stroke="#a855f7" stroke-width="1"/>
      <text x="342" y="90" text-anchor="middle" fill="#d8b4fe" font-size="10" font-family="monospace">Notify</text>
      <!-- Lines from gateway to services -->
      <line x1="180" y1="68" x2="58" y2="70" stroke="#334155" stroke-width="1"/>
      <line x1="190" y1="68" x2="148" y2="70" stroke="#334155" stroke-width="1"/>
      <line x1="210" y1="68" x2="252" y2="70" stroke="#334155" stroke-width="1"/>
      <line x1="220" y1="68" x2="342" y2="70" stroke="#334155" stroke-width="1"/>
      <!-- DB icons below each -->
      <rect x="30" y="116" width="56" height="18" rx="3" fill="#0f172a" stroke="#3b82f6" stroke-width="0.8"/>
      <text x="58" y="129" text-anchor="middle" fill="#64748b" font-size="9" font-family="monospace">MySQL</text>
      <rect x="120" y="116" width="56" height="18" rx="3" fill="#0f172a" stroke="#22c55e" stroke-width="0.8"/>
      <text x="148" y="129" text-anchor="middle" fill="#64748b" font-size="9" font-family="monospace">Razorpay</text>
      <rect x="224" y="116" width="56" height="18" rx="3" fill="#0f172a" stroke="#f59e0b" stroke-width="0.8"/>
      <text x="252" y="129" text-anchor="middle" fill="#64748b" font-size="9" font-family="monospace">MySQL</text>
      <rect x="314" y="116" width="56" height="18" rx="3" fill="#0f172a" stroke="#a855f7" stroke-width="0.8"/>
      <text x="342" y="129" text-anchor="middle" fill="#64748b" font-size="9" font-family="monospace">SMTP</text>
      <!-- JWT badge -->
      <rect x="10" y="155" width="40" height="18" rx="9" fill="#1e3a5f"/>
      <text x="30" y="168" text-anchor="middle" fill="#93c5fd" font-size="9" font-family="monospace">JWT</text>
      <rect x="58" y="155" width="60" height="18" rx="9" fill="#1a3a2a"/>
      <text x="88" y="168" text-anchor="middle" fill="#86efac" font-size="9" font-family="monospace">Spring Boot</text>
      <rect x="126" y="155" width="66" height="18" rx="9" fill="#1a1a3b"/>
      <text x="159" y="168" text-anchor="middle" fill="#a5b4fc" font-size="9" font-family="monospace">Microservices</text>
      <!-- Title -->
      <text x="20" y="195" fill="#475569" font-size="10" font-family="monospace">Distributed Order Processing System</text>
      <defs><marker id="arr2" viewBox="0 0 10 10" refX="8" refY="5" markerWidth="5" markerHeight="5" orient="auto"><path d="M2 1L8 5L2 9" fill="none" stroke="#06b6d4" stroke-width="1.5"/></marker></defs>
    </svg>