<svg class="thumb" viewBox="0 0 400 200" xmlns="http://www.w3.org/2000/svg">
      <rect width="400" height="200" fill="#0d1117"/>
      <rect x="0" y="0" width="400" height="4" fill="#22c55e"/>
      <!-- Header bar -->
      <rect x="0" y="4" width="400" height="28" fill="#161b22"/>
      <text x="16" y="23" fill="#c9d1d9" font-size="11" font-family="monospace" font-weight="600">Workspace Board</text>
      <rect x="340" y="10" width="50" height="16" rx="8" fill="#21262d" stroke="#30363d" stroke-width="1"/>
      <text x="365" y="22" text-anchor="middle" fill="#8b949e" font-size="9" font-family="monospace">+ Add</text>
      <!-- 3 columns -->
      <!-- TODO -->
      <rect x="8" y="40" width="116" height="152" rx="6" fill="#161b22" stroke="#21262d" stroke-width="1"/>
      <text x="20" y="56" fill="#8b949e" font-size="10" font-family="monospace">📋 Todo</text>
      <rect x="16" y="62" width="100" height="34" rx="4" fill="#0d1117" stroke="#30363d" stroke-width="1"/>
      <text x="24" y="76" fill="#c9d1d9" font-size="9" font-family="monospace">Design login UI</text>
      <text x="24" y="88" fill="#6e7681" font-size="8" font-family="monospace">React.js</text>
      <rect x="16" y="102" width="100" height="34" rx="4" fill="#0d1117" stroke="#30363d" stroke-width="1"/>
      <text x="24" y="116" fill="#c9d1d9" font-size="9" font-family="monospace">Setup MongoDB</text>
      <text x="24" y="128" fill="#6e7681" font-size="8" font-family="monospace">Atlas</text>
      <!-- IN PROGRESS -->
      <rect x="142" y="40" width="116" height="152" rx="6" fill="#161b22" stroke="#21262d" stroke-width="1"/>
      <text x="154" y="56" fill="#f59e0b" font-size="10" font-family="monospace">⚡ In Progress</text>
      <rect x="150" y="62" width="100" height="34" rx="4" fill="#1c1600" stroke="#f59e0b" stroke-width="1"/>
      <text x="158" y="76" fill="#fcd34d" font-size="9" font-family="monospace">JWT Auth flow</text>
      <text x="158" y="88" fill="#92400e" font-size="8" font-family="monospace">Spring Boot</text>
      <rect x="150" y="102" width="100" height="34" rx="4" fill="#0d1117" stroke="#30363d" stroke-width="1"/>
      <text x="158" y="116" fill="#c9d1d9" font-size="9" font-family="monospace">REST API CRUD</text>
      <text x="158" y="128" fill="#6e7681" font-size="8" font-family="monospace">Java</text>
      <!-- DONE -->
      <rect x="276" y="40" width="116" height="152" rx="6" fill="#161b22" stroke="#21262d" stroke-width="1"/>
      <text x="288" y="56" fill="#22c55e" font-size="10" font-family="monospace">✅ Done</text>
      <rect x="284" y="62" width="100" height="34" rx="4" fill="#0a1e0d" stroke="#22c55e" stroke-width="1"/>
      <text x="292" y="76" fill="#86efac" font-size="9" font-family="monospace">Context API</text>
      <text x="292" y="88" fill="#166534" font-size="8" font-family="monospace">State Mgmt</text>
      <rect x="284" y="102" width="100" height="34" rx="4" fill="#0a1e0d" stroke="#22c55e" stroke-width="1"/>
      <text x="292" y="116" fill="#86efac" font-size="9" font-family="monospace">DB Schema</text>
      <text x="292" y="128" fill="#166534" font-size="8" font-family="monospace">MongoDB</text>
    </svg>